<mxfile host="app.diagrams.net" agent="Mozilla/5.0 (Windows NT 10.0; Win64; x64) AppleWebKit/537.36 (KHTML, like Gecko) Chrome/140.0.0.0 Safari/537.36" version="28.2.0">
  <diagram name="Página-1" id="WuxUEZfPwQUmhZvct4pl">
    <mxGraphModel grid="1" page="1" gridSize="10" guides="1" tooltips="1" connect="1" arrows="1" fold="1" pageScale="1" pageWidth="1169" pageHeight="827" math="0" shadow="0">
      <root>
        <mxCell id="0" />
        <mxCell id="1" parent="0" />
        <mxCell id="6bBRm0SfUCQoNEFUKWLN-1" value="" style="whiteSpace=wrap;html=1;aspect=fixed;" vertex="1" parent="1">
          <mxGeometry x="52.5" width="937.5" height="937.5" as="geometry" />
        </mxCell>
        <mxCell id="6bBRm0SfUCQoNEFUKWLN-3" value="" style="rounded=0;whiteSpace=wrap;html=1;" vertex="1" parent="1">
          <mxGeometry x="250" y="50" width="550" height="270" as="geometry" />
        </mxCell>
        <mxCell id="RyVx_2g8ejBPWYrW1Y4M-10" value="" style="rounded=0;whiteSpace=wrap;html=1;" vertex="1" parent="1">
          <mxGeometry x="250" y="356.25" width="550" height="317.5" as="geometry" />
        </mxCell>
        <mxCell id="RyVx_2g8ejBPWYrW1Y4M-5" value="" style="whiteSpace=wrap;html=1;aspect=fixed;" vertex="1" parent="1">
          <mxGeometry x="432.5" y="720" width="170" height="170" as="geometry" />
        </mxCell>
        <mxCell id="g4zUrPzOM-k23fn4Z1yn-1" value="Player" style="shape=umlActor;verticalLabelPosition=bottom;verticalAlign=top;html=1;outlineConnect=0;" vertex="1" parent="1">
          <mxGeometry x="270" y="410" width="30" height="60" as="geometry" />
        </mxCell>
        <mxCell id="-kd7NfMeiV4Q8LPRzOCT-8" style="edgeStyle=orthogonalEdgeStyle;rounded=0;orthogonalLoop=1;jettySize=auto;html=1;" edge="1" parent="1" source="g4zUrPzOM-k23fn4Z1yn-2">
          <mxGeometry relative="1" as="geometry">
            <Array as="points">
              <mxPoint x="680" y="440" />
              <mxPoint x="680" y="150" />
            </Array>
            <mxPoint x="729.9999999999998" y="149.9999999999999" as="targetPoint" />
          </mxGeometry>
        </mxCell>
        <mxCell id="g4zUrPzOM-k23fn4Z1yn-2" value="Match making" style="ellipse;whiteSpace=wrap;html=1;" vertex="1" parent="1">
          <mxGeometry x="457.5" y="400" width="120" height="80" as="geometry" />
        </mxCell>
        <mxCell id="g4zUrPzOM-k23fn4Z1yn-12" style="edgeStyle=orthogonalEdgeStyle;rounded=0;orthogonalLoop=1;jettySize=auto;html=1;dashed=1;exitX=0.5;exitY=0;exitDx=0;exitDy=0;entryX=0.5;entryY=1;entryDx=0;entryDy=0;" edge="1" parent="1" source="g4zUrPzOM-k23fn4Z1yn-10" target="g4zUrPzOM-k23fn4Z1yn-2">
          <mxGeometry relative="1" as="geometry">
            <mxPoint x="580" y="520" as="targetPoint" />
          </mxGeometry>
        </mxCell>
        <mxCell id="g4zUrPzOM-k23fn4Z1yn-10" value="Ranking validator" style="ellipse;whiteSpace=wrap;html=1;" vertex="1" parent="1">
          <mxGeometry x="457.5" y="550" width="120" height="80" as="geometry" />
        </mxCell>
        <mxCell id="g4zUrPzOM-k23fn4Z1yn-13" value="&amp;lt;&amp;lt;includes&amp;gt;&amp;gt;" style="text;html=1;align=center;verticalAlign=middle;resizable=0;points=[];autosize=1;strokeColor=none;fillColor=none;" vertex="1" parent="1">
          <mxGeometry x="425" y="500" width="100" height="30" as="geometry" />
        </mxCell>
        <mxCell id="g4zUrPzOM-k23fn4Z1yn-18" value="" style="endArrow=none;html=1;rounded=0;exitX=0.5;exitY=0.5;exitDx=0;exitDy=0;entryX=0;entryY=0.5;entryDx=0;entryDy=0;exitPerimeter=0;" edge="1" parent="1" source="g4zUrPzOM-k23fn4Z1yn-1" target="g4zUrPzOM-k23fn4Z1yn-2">
          <mxGeometry width="50" height="50" relative="1" as="geometry">
            <mxPoint x="360" y="430" as="sourcePoint" />
            <mxPoint x="515" y="430" as="targetPoint" />
          </mxGeometry>
        </mxCell>
        <mxCell id="g4zUrPzOM-k23fn4Z1yn-24" style="edgeStyle=orthogonalEdgeStyle;rounded=0;orthogonalLoop=1;jettySize=auto;html=1;entryX=1;entryY=0.5;entryDx=0;entryDy=0;dashed=1;exitX=0;exitY=0.5;exitDx=0;exitDy=0;" edge="1" parent="1" source="g4zUrPzOM-k23fn4Z1yn-28" target="g4zUrPzOM-k23fn4Z1yn-10">
          <mxGeometry relative="1" as="geometry">
            <mxPoint x="660" y="610" as="sourcePoint" />
            <mxPoint x="540" y="510" as="targetPoint" />
            <Array as="points">
              <mxPoint x="660" y="590" />
              <mxPoint x="660" y="590" />
            </Array>
          </mxGeometry>
        </mxCell>
        <mxCell id="g4zUrPzOM-k23fn4Z1yn-28" value="GET USER&amp;nbsp; INFORMATIONS&amp;nbsp;" style="ellipse;whiteSpace=wrap;html=1;" vertex="1" parent="1">
          <mxGeometry x="640" y="550" width="120" height="80" as="geometry" />
        </mxCell>
        <mxCell id="-kd7NfMeiV4Q8LPRzOCT-1" value="Get Match results" style="ellipse;whiteSpace=wrap;html=1;" vertex="1" parent="1">
          <mxGeometry x="425" y="80" width="120" height="90" as="geometry" />
        </mxCell>
        <mxCell id="-kd7NfMeiV4Q8LPRzOCT-6" value="" style="endArrow=none;html=1;rounded=0;entryX=0.726;entryY=0.014;entryDx=0;entryDy=0;entryPerimeter=0;" edge="1" parent="1" source="g4zUrPzOM-k23fn4Z1yn-28" target="RyVx_2g8ejBPWYrW1Y4M-5">
          <mxGeometry width="50" height="50" relative="1" as="geometry">
            <mxPoint x="710" y="540" as="sourcePoint" />
            <mxPoint x="710" y="490" as="targetPoint" />
          </mxGeometry>
        </mxCell>
        <mxCell id="-kd7NfMeiV4Q8LPRzOCT-9" style="edgeStyle=orthogonalEdgeStyle;rounded=0;orthogonalLoop=1;jettySize=auto;html=1;entryX=1;entryY=0.5;entryDx=0;entryDy=0;" edge="1" parent="1" target="-kd7NfMeiV4Q8LPRzOCT-1">
          <mxGeometry relative="1" as="geometry">
            <mxPoint x="729.9999999999998" y="125" as="sourcePoint" />
          </mxGeometry>
        </mxCell>
        <mxCell id="-kd7NfMeiV4Q8LPRzOCT-11" value="Database with results" style="shape=umlActor;verticalLabelPosition=bottom;verticalAlign=top;html=1;outlineConnect=0;" vertex="1" parent="1">
          <mxGeometry x="310" y="200" width="30" height="60" as="geometry" />
        </mxCell>
        <mxCell id="RyVx_2g8ejBPWYrW1Y4M-18" value="Batalhas" style="text;html=1;align=center;verticalAlign=middle;resizable=0;points=[];autosize=1;strokeColor=none;fillColor=none;" vertex="1" parent="1">
          <mxGeometry x="485" y="50" width="70" height="30" as="geometry" />
        </mxCell>
        <mxCell id="RyVx_2g8ejBPWYrW1Y4M-19" value="Gestão de batlhas" style="text;html=1;align=center;verticalAlign=middle;resizable=0;points=[];autosize=1;strokeColor=none;fillColor=none;" vertex="1" parent="1">
          <mxGeometry x="475" y="350" width="120" height="30" as="geometry" />
        </mxCell>
        <mxCell id="RyVx_2g8ejBPWYrW1Y4M-20" value="Jogadores" style="text;html=1;align=center;verticalAlign=middle;resizable=0;points=[];autosize=1;strokeColor=none;fillColor=none;" vertex="1" parent="1">
          <mxGeometry x="475" y="730" width="80" height="30" as="geometry" />
        </mxCell>
        <mxCell id="6bBRm0SfUCQoNEFUKWLN-5" value="&amp;lt;&amp;lt;includes&amp;gt;&amp;gt;" style="text;html=1;align=center;verticalAlign=middle;resizable=0;points=[];autosize=1;strokeColor=none;fillColor=none;" vertex="1" parent="1">
          <mxGeometry x="560" y="600" width="100" height="30" as="geometry" />
        </mxCell>
        <mxCell id="6bBRm0SfUCQoNEFUKWLN-28" value="" style="group" connectable="0" vertex="1" parent="1">
          <mxGeometry x="150" y="760" width="680" height="860" as="geometry" />
        </mxCell>
        <mxCell id="6bBRm0SfUCQoNEFUKWLN-38" value="" style="whiteSpace=wrap;html=1;aspect=fixed;" vertex="1" parent="6bBRm0SfUCQoNEFUKWLN-28">
          <mxGeometry x="80" y="240" width="600" height="600" as="geometry" />
        </mxCell>
        <mxCell id="RyVx_2g8ejBPWYrW1Y4M-2" value="Players" style="shape=umlActor;verticalLabelPosition=bottom;verticalAlign=top;html=1;outlineConnect=0;" vertex="1" parent="6bBRm0SfUCQoNEFUKWLN-28">
          <mxGeometry x="350" width="30" height="60" as="geometry" />
        </mxCell>
        <mxCell id="6bBRm0SfUCQoNEFUKWLN-12" value="&lt;span style=&quot;font-weight: 400; text-align: left;&quot;&gt;rankingValidatorRepository&lt;/span&gt;" style="swimlane;fontStyle=1;align=center;verticalAlign=top;childLayout=stackLayout;horizontal=1;startSize=26;horizontalStack=0;resizeParent=1;resizeParentMax=0;resizeLast=0;collapsible=1;marginBottom=0;whiteSpace=wrap;html=1;" vertex="1" parent="6bBRm0SfUCQoNEFUKWLN-28">
          <mxGeometry x="479.5" y="340" width="159" height="140" as="geometry" />
        </mxCell>
        <mxCell id="6bBRm0SfUCQoNEFUKWLN-13" value="- id&lt;div&gt;- resultado&amp;nbsp;&lt;/div&gt;" style="text;strokeColor=none;fillColor=none;align=left;verticalAlign=top;spacingLeft=4;spacingRight=4;overflow=hidden;rotatable=0;points=[[0,0.5],[1,0.5]];portConstraint=eastwest;whiteSpace=wrap;html=1;" vertex="1" parent="6bBRm0SfUCQoNEFUKWLN-12">
          <mxGeometry y="26" width="159" height="44" as="geometry" />
        </mxCell>
        <mxCell id="6bBRm0SfUCQoNEFUKWLN-14" value="" style="line;strokeWidth=1;fillColor=none;align=left;verticalAlign=middle;spacingTop=-1;spacingLeft=3;spacingRight=3;rotatable=0;labelPosition=right;points=[];portConstraint=eastwest;strokeColor=inherit;" vertex="1" parent="6bBRm0SfUCQoNEFUKWLN-12">
          <mxGeometry y="70" width="159" height="10" as="geometry" />
        </mxCell>
        <mxCell id="6bBRm0SfUCQoNEFUKWLN-15" value="+ iniciar()&lt;div&gt;+ finaliza()&lt;/div&gt;&lt;div&gt;+ getMatchResults()&lt;/div&gt;" style="text;strokeColor=none;fillColor=none;align=left;verticalAlign=top;spacingLeft=4;spacingRight=4;overflow=hidden;rotatable=0;points=[[0,0.5],[1,0.5]];portConstraint=eastwest;whiteSpace=wrap;html=1;" vertex="1" parent="6bBRm0SfUCQoNEFUKWLN-12">
          <mxGeometry y="80" width="159" height="60" as="geometry" />
        </mxCell>
        <mxCell id="6bBRm0SfUCQoNEFUKWLN-8" value="Jogador" style="swimlane;fontStyle=1;align=center;verticalAlign=top;childLayout=stackLayout;horizontal=1;startSize=26;horizontalStack=0;resizeParent=1;resizeParentMax=0;resizeLast=0;collapsible=1;marginBottom=0;whiteSpace=wrap;html=1;" vertex="1" parent="6bBRm0SfUCQoNEFUKWLN-28">
          <mxGeometry x="110" y="350" width="160" height="130" as="geometry" />
        </mxCell>
        <mxCell id="6bBRm0SfUCQoNEFUKWLN-9" value="- id&lt;div&gt;- nome&lt;/div&gt;&lt;div&gt;- ranking&amp;nbsp;&lt;/div&gt;&lt;div&gt;&lt;br&gt;&lt;div&gt;&lt;br&gt;&lt;/div&gt;&lt;/div&gt;" style="text;strokeColor=none;fillColor=none;align=left;verticalAlign=top;spacingLeft=4;spacingRight=4;overflow=hidden;rotatable=0;points=[[0,0.5],[1,0.5]];portConstraint=eastwest;whiteSpace=wrap;html=1;" vertex="1" parent="6bBRm0SfUCQoNEFUKWLN-8">
          <mxGeometry y="26" width="160" height="54" as="geometry" />
        </mxCell>
        <mxCell id="6bBRm0SfUCQoNEFUKWLN-10" value="" style="line;strokeWidth=1;fillColor=none;align=left;verticalAlign=middle;spacingTop=-1;spacingLeft=3;spacingRight=3;rotatable=0;labelPosition=right;points=[];portConstraint=eastwest;strokeColor=inherit;" vertex="1" parent="6bBRm0SfUCQoNEFUKWLN-8">
          <mxGeometry y="80" width="160" height="8" as="geometry" />
        </mxCell>
        <mxCell id="6bBRm0SfUCQoNEFUKWLN-11" value="+ participarBatalha()&lt;div&gt;+ SolicitarMatch()&lt;/div&gt;" style="text;strokeColor=none;fillColor=none;align=left;verticalAlign=top;spacingLeft=4;spacingRight=4;overflow=hidden;rotatable=0;points=[[0,0.5],[1,0.5]];portConstraint=eastwest;whiteSpace=wrap;html=1;" vertex="1" parent="6bBRm0SfUCQoNEFUKWLN-8">
          <mxGeometry y="88" width="160" height="42" as="geometry" />
        </mxCell>
        <mxCell id="6bBRm0SfUCQoNEFUKWLN-24" value="gestaoBatalhaControler" style="swimlane;fontStyle=1;align=center;verticalAlign=top;childLayout=stackLayout;horizontal=1;startSize=26;horizontalStack=0;resizeParent=1;resizeParentMax=0;resizeLast=0;collapsible=1;marginBottom=0;whiteSpace=wrap;html=1;" vertex="1" parent="6bBRm0SfUCQoNEFUKWLN-28">
          <mxGeometry x="290" y="599" width="160" height="140" as="geometry" />
        </mxCell>
        <mxCell id="6bBRm0SfUCQoNEFUKWLN-25" value="-rankingValidatorRepository" style="text;strokeColor=none;fillColor=none;align=left;verticalAlign=top;spacingLeft=4;spacingRight=4;overflow=hidden;rotatable=0;points=[[0,0.5],[1,0.5]];portConstraint=eastwest;whiteSpace=wrap;html=1;" vertex="1" parent="6bBRm0SfUCQoNEFUKWLN-24">
          <mxGeometry y="26" width="160" height="44" as="geometry" />
        </mxCell>
        <mxCell id="6bBRm0SfUCQoNEFUKWLN-26" value="" style="line;strokeWidth=1;fillColor=none;align=left;verticalAlign=middle;spacingTop=-1;spacingLeft=3;spacingRight=3;rotatable=0;labelPosition=right;points=[];portConstraint=eastwest;strokeColor=inherit;" vertex="1" parent="6bBRm0SfUCQoNEFUKWLN-24">
          <mxGeometry y="70" width="160" height="10" as="geometry" />
        </mxCell>
        <mxCell id="6bBRm0SfUCQoNEFUKWLN-27" value="+ matchMaking()&lt;div&gt;+ getUserInformation()&lt;/div&gt;" style="text;strokeColor=none;fillColor=none;align=left;verticalAlign=top;spacingLeft=4;spacingRight=4;overflow=hidden;rotatable=0;points=[[0,0.5],[1,0.5]];portConstraint=eastwest;whiteSpace=wrap;html=1;" vertex="1" parent="6bBRm0SfUCQoNEFUKWLN-24">
          <mxGeometry y="80" width="160" height="60" as="geometry" />
        </mxCell>
        <mxCell id="6bBRm0SfUCQoNEFUKWLN-34" value="" style="endArrow=none;html=1;rounded=0;entryX=0.5;entryY=0;entryDx=0;entryDy=0;exitX=0.614;exitY=1.007;exitDx=0;exitDy=0;exitPerimeter=0;" edge="1" parent="6bBRm0SfUCQoNEFUKWLN-28" source="6bBRm0SfUCQoNEFUKWLN-15" target="bPrIiPX8g7Pd2YYG29rp-10">
          <mxGeometry width="50" height="50" relative="1" as="geometry">
            <mxPoint x="617.8461162860577" y="630" as="sourcePoint" />
            <mxPoint x="490.24" y="689.0900000000004" as="targetPoint" />
            <Array as="points">
              <mxPoint x="577" y="690" />
            </Array>
          </mxGeometry>
        </mxCell>
        <mxCell id="6bBRm0SfUCQoNEFUKWLN-36" value="" style="endArrow=none;html=1;rounded=0;exitX=1.008;exitY=0.645;exitDx=0;exitDy=0;exitPerimeter=0;" edge="1" parent="6bBRm0SfUCQoNEFUKWLN-28" source="6bBRm0SfUCQoNEFUKWLN-9">
          <mxGeometry width="50" height="50" relative="1" as="geometry">
            <mxPoint x="370" y="661.5" as="sourcePoint" />
            <mxPoint x="480" y="411.5" as="targetPoint" />
          </mxGeometry>
        </mxCell>
        <mxCell id="6bBRm0SfUCQoNEFUKWLN-39" value="Diagrama de Classe" style="text;html=1;align=center;verticalAlign=middle;resizable=0;points=[];autosize=1;strokeColor=none;fillColor=none;" vertex="1" parent="6bBRm0SfUCQoNEFUKWLN-28">
          <mxGeometry x="300" y="260" width="130" height="30" as="geometry" />
        </mxCell>
        <mxCell id="bPrIiPX8g7Pd2YYG29rp-10" value="" style="rhombus;whiteSpace=wrap;html=1;fillColor=#33001A;rotation=90;" vertex="1" parent="6bBRm0SfUCQoNEFUKWLN-28">
          <mxGeometry x="460" y="680" width="9.5" height="20" as="geometry" />
        </mxCell>
        <mxCell id="6bBRm0SfUCQoNEFUKWLN-40" value="Diagrama de Caso de Uso" style="text;html=1;align=center;verticalAlign=middle;resizable=0;points=[];autosize=1;strokeColor=none;fillColor=none;" vertex="1" parent="1">
          <mxGeometry x="470" width="160" height="30" as="geometry" />
        </mxCell>
        <mxCell id="bPrIiPX8g7Pd2YYG29rp-3" value="" style="endArrow=none;html=1;rounded=0;entryX=-0.005;entryY=0.568;entryDx=0;entryDy=0;entryPerimeter=0;" edge="1" parent="1" source="-kd7NfMeiV4Q8LPRzOCT-11" target="-kd7NfMeiV4Q8LPRzOCT-1">
          <mxGeometry width="50" height="50" relative="1" as="geometry">
            <mxPoint x="350" y="200" as="sourcePoint" />
            <mxPoint x="400" y="150" as="targetPoint" />
          </mxGeometry>
        </mxCell>
        <mxCell id="bPrIiPX8g7Pd2YYG29rp-4" value="Batalha" style="ellipse;whiteSpace=wrap;html=1;" vertex="1" parent="1">
          <mxGeometry x="690" y="90" width="110" height="80" as="geometry" />
        </mxCell>
      </root>
    </mxGraphModel>
  </diagram>
</mxfile>
